<svg xmlns="http://www.w3.org/2000/svg" viewBox="0 0 3033 3333" shape-rendering="geometricPrecision" text-rendering="geometricPrecision" image-rendering="optimizeQuality" fill-rule="evenodd" clip-rule="evenodd"><path  fill="#D5DBDB" d="M1511 0c566 358 1076 528 1515 488 77 1549-495 2464-1509 2845C538 2976-41 2100 2 464c515 27 1020-84 1509-464zm-387 1506h39v-90c0-100 39-191 103-258s153-108 250-108 186 41 250 108c64 66 103 157 103 258v90h39c32 0 58 26 58 58v609c0 32-26 58-58 58h-784c-32 0-58-26-58-58v-609c0-32 26-58 58-58zm148 0h488v-90c0-71-28-136-72-182s-105-75-172-75-127 29-172 75c-45 47-72 111-72 182v90zm197 401l-62 163h219l-58-165c37-19 62-57 62-101 0-63-51-113-113-113-63 0-113 51-113 113 0 46 27 85 66 103zm43-1715c501 317 953 467 1341 432 68 1371-439 2181-1336 2519C651 2827 138 2052 176 604c456 24 903-75 1336-411z"/></svg>