<svg xmlns="http://www.w3.org/2000/svg" viewBox="0 0 333333 288000" shape-rendering="geometricPrecision" text-rendering="geometricPrecision" image-rendering="optimizeQuality" fill-rule="evenodd" clip-rule="evenodd"><path fill="#08415C" d="M236699 94784l-78293 49884c-25256 17026 2826 52570 26612 26970l59226-68820-7545-8035zM52435 288000c-16455-15498-29757-34292-38838-55316C4848 212430-1 190108-1 166666c0-46023 18655-87690 48816-117851C78975 18654 120643-1 166666-1c45939 0 87533 18763 117675 48906 30263 30263 48991 72009 48991 117760 0 22255-4460 43561-12544 63077-8387 20246-20667 38505-35905 53842l-8791-8743-80 80-23403-23403 12291-12291 19173 19173c8431-10692 15425-22538 20689-35246 7006-16911 10958-35404 11176-54798h-26281v-17385h25462c-3589-33866-18651-64536-41254-87926l-17010 17010-12292-12291 16513-16514c-24632-20222-55812-32765-89853-33796v23358h-17384V17928c-33791 2876-64370 17007-87975 38628l17059 17059-12291 12291-16887-16887c-21144 24432-34492 55797-36177 90227h26112v17384H17713c1144 17386 5260 33951 11844 49193 5808 13445 13529 25863 22817 36906l20850-20850 12291 12291-21196 21196 1 1-11884 12630z"/></svg>