<svg xmlns="http://www.w3.org/2000/svg"  viewBox="0 0 336461 333333" shape-rendering="geometricPrecision" text-rendering="geometricPrecision" image-rendering="optimizeQuality" fill-rule="evenodd" clip-rule="evenodd"><path fill="#D5DBDB" d="M88109 289513c1912-3038 5927-3950 8965-2038s3950 5927 2038 8965l-13182 21019c-1912 3038-5927 3950-8965 2038s-3950-5927-2038-8965l13181-21019zm-70112-83286c914 3474-1161 7032-4635 7946-3474 913-7032-1161-7946-4635-1076-4096-2006-8230-2784-12418-772-4158-1379-8299-1809-12432-279-2682-481-5411-612-8181-143-3001-210-5750-210-8277 0-46454 18831-88513 49274-118956S121777 0 168231 0c46474 0 88559 18709 119015 49049 30410 30294 49215 72163 49215 118565 0 3601-2919 6520-6520 6520s-6520-2920-6520-6520c0-42823-17326-81434-45344-109345-28083-27976-66925-45228-109846-45228-42855 0-81654 17371-109737 45454s-45453 66881-45453 109736c0 2835 50 5404 158 7666 118 2494 303 4984 562 7467 398 3832 954 7632 1656 11414 698 3753 1560 7567 2580 11450zm17512 59010c-2714 2348-6820 2052-9169-662-2348-2715-2052-6820 662-9169 1642-1424 3093-3117 4337-5092 1285-2038 2360-4406 3212-7121 4346-13850 1720-28311-941-42974-1807-9960-3631-20007-3570-30514 318-53664 33887-97429 77817-119842 18436-9406 38744-15062 59223-16115 20574-1058 41294 2536 60439 11642 42745 20331 77458 67886 84686 152105 295 3587-2373 6734-5960 7029s-6734-2373-7029-5960c-6765-78828-38394-122928-77249-141408-17144-8154-35736-11370-54226-10420-18586 956-37098 6130-53975 14740-39935 20375-70451 59939-70737 108279-55 9322 1663 18788 3367 28171 2953 16266 5864 32307 584 49137-1187 3780-2740 7166-4638 10176-1936 3074-4222 5731-6834 7996zm263556-40684c0-3601 2919-6520 6520-6520s6520 2919 6520 6520v27320c0 3601-2920 6520-6520 6520-3601 0-6520-2920-6520-6520v-27320zM54794 291773c-2686 2377-6792 2126-9169-560s-2126-6792 560-9169c8064-7125 13955-16306 17351-27836 3499-11877 4381-26303 2317-43598-3789-18563-4469-35703-2258-51167 2313-16176 7774-30535 16135-42798 2025-2967 6074-3731 9041-1706 2968 2025 3731 6074 1707 9041-7232 10607-11969 23120-13996 37296-2006 14033-1372 29685 2104 46731 89 321 156 653 196 993 2288 19091 1241 35274-2766 48875-4114 13965-11320 25148-21222 33897zm66184-196024c-3109 1800-7089 740-8889-2369-1800-3108-740-7089 2369-8889 7294-4211 15058-7553 23094-9993 22016-6689 45917-6499 67650 1133 21841 7669 41478 22791 54833 45922 4450 7706 8204 16328 11107 25884 4145 13646 6957 28853 8394 45590 1413 16467 1509 34540 250 54195-11 181-31 360-56 537l-4537 44863c-352 3572-3534 6184-7106 5832s-6184-3533-5832-7106l4541-44899 2-41c1213-18933 1117-36378-250-52311-1368-15941-3992-30246-7833-42890-2587-8515-5946-16222-9936-23133-11700-20264-28834-33488-47855-40167-19130-6717-40188-6879-59602-980-7030 2135-13869 5085-20343 8823zm-14334 172994c-619 3544-3994 5916-7539 5297-3544-619-5916-3994-5297-7539 1503-8444 2351-17889 2649-28168 302-10430 51-21848-646-34055-150-2623-381-5891-604-9063-1467-20782-2650-37531 9506-59154 2676-4760 5895-9192 9721-13249 3831-4064 8231-7720 13261-10919 326-206 662-380 1006-522 7410-3561 14798-6323 22159-8122 7592-1856 15110-2672 22541-2267 3587 182 6346 3239 6164 6825-183 3587-3239 6346-6825 6164-6163-335-12444 352-18822 1911-6361 1555-12864 3994-19483 7168-4034 2592-7526 5495-10526 8677-3064 3250-5661 6831-7837 10703-10250 18233-9191 33244-7876 51870 193 2746 394 5572 604 9266 709 12440 962 24204 646 35124-321 11073-1218 21156-2802 30053zm91715-146871c-3066-1870-4036-5874-2165-8939 1870-3066 5873-4036 8939-2166 1997 1220 3944 2539 5831 3961 1857 1400 3706 2930 5539 4594 24796 22522 33220 58756 33767 96646 532 36898-6406 75413-12761 103806-773 3502-4240 5714-7743 4941-3502-773-5714-4241-4941-7743 6200-27700 12970-65207 12456-100852-500-34654-7878-67495-29540-87171-1514-1375-3057-2652-4622-3831-1607-1210-3195-2292-4761-3248zm-80198 205854c-2073 2933-6133 3631-9066 1558-2934-2073-3631-6133-1558-9067 4594-6492 8489-13600 11658-21341 3183-7776 5643-16226 7350-25369 3183-17045 1659-38793 220-59340-484-6915-959-13696-1261-20656-440-10160-630-20133 1260-29198 2060-9883 6492-18465 15378-24685 2002-1402 4160-2650 6485-3726 2338-1082 4856-2018 7567-2790 2026-576 4017-1029 5969-1363 13328-2280 23892 1178 32052 8295 7743 6754 13016 16718 16238 28030 963 3383 1751 6917 2370 10539 337 1974 622 3966 856 5956 230 1963 413 3993 549 6066 1363 20649 465 46401-2325 71624-2674 24173-7115 47996-13001 66528-1085 3427-4746 5325-8172 4240-3427-1085-5325-4745-4240-8172 5589-17596 9842-40546 12439-64026 2711-24511 3589-49459 2274-69377-113-1724-279-3528-498-5402-205-1743-455-3496-754-5240-535-3130-1220-6200-2063-9160-2582-9064-6583-16853-12253-21799-5252-4581-12242-6775-21275-5230-1454 248-2984 599-4590 1056-2102 599-3989 1294-5677 2075-1700 787-3194 1640-4494 2551-5724 4007-8642 9837-10066 16667-1594 7648-1407 16695-1005 25980 267 6153 759 13181 1262 20349 1492 21298 3071 43839-424 62559-1864 9984-4580 19286-8116 27923-3550 8671-7922 16647-13087 23945zm44585-157557c-647-3531 1691-6918 5221-7565 3531-647 6918 1691 7565 5221 3323 17853 4913 35885 4967 54017 55 18051-1421 36181-4230 54315-548 3544-3867 5973-7411 5425s-5973-3867-5425-7411c2707-17479 4130-34946 4077-52329-52-17301-1577-34549-4764-51673zm-7431 126395c773-3502 4240-5714 7743-4941 3502 773 5714 4240 4941 7743l-5700 25651c-773 3502-4240 5714-7743 4941-3502-773-5714-4240-4941-7743l5700-25651z" fill-rule="nonzero"/></svg>