<svg xmlns="http://www.w3.org/2000/svg" viewBox="0 0 3076 3333" shape-rendering="geometricPrecision" text-rendering="geometricPrecision" image-rendering="optimizeQuality" fill-rule="evenodd" clip-rule="evenodd"><path fill="#D5DBDB" d="M1058 2162c-37 0-68-36-68-80s30-80 68-80h370c37 0 68 36 68 80s-30 80-68 80h-370zm1265-334c208 0 396 84 532 220s220 324 220 532-84 396-220 532-324 220-532 220-396-84-532-220-220-324-220-532 84-396 220-532 324-220 532-220zm-57 400c0-37 30-67 67-67s67 30 67 67v351l262 155c32 19 42 60 24 92-19 32-60 42-92 24l-291-173c-22-11-37-34-37-60v-389zm494-85c-112-112-266-181-437-181s-325 69-437 181-181 266-181 437 69 325 181 437 266 181 437 181 325-69 437-181 181-266 181-437-69-325-181-437zm-1564 838c45 0 81 36 81 81s-36 81-81 81H187c-52 0-99-21-133-55s-55-81-55-133V187c0-52 21-99 55-133S135-1 187-1h2303c52 0 99 21 133 55s55 81 55 133v1283c0 45-36 81-81 81s-81-36-81-81V187c0-7-3-14-8-19s-11-8-19-8H186c-7 0-14 3-19 8s-8 11-8 19v2768c0 7 3 14 8 19s11 8 19 8h1009zM518 1965h202c15 0 26 12 26 26v202c0 15-12 26-26 26H518c-15 0-26-12-26-26v-202c0-15 12-26 26-26zm0-1383h202c15 0 26 12 26 26v202c0 15-12 26-26 26H518c-15 0-26-12-26-26V608c0-15 12-26 26-26zm540 196c-37 0-68-36-68-80s30-80 68-80h962c37 0 68 36 68 80s-30 80-68 80h-962zm-457 744c-17 14-42 10-60-7-2-1-4-3-6-5l-85-87c-18-18-14-49 9-69s56-21 73-2l46 48 148-119c20-16 50-9 67 16s15 57-5 73l-190 153zm412-67c-37 0-68-36-68-80s30-80 68-80h962c37 0 68 36 68 80s-30 80-68 80h-962z" fill-rule="nonzero"/></svg>